<?xml version="1.0" encoding="UTF-8" standalone="no"?>
<svg
   xmlns="http://www.w3.org/2000/svg"
   viewBox="0 0 200.1098 196.09256"
     id="svg3708"
   version="1.1">
  <metadata
     id="metadata3714">
    <rdf:RDF>
      <cc:Work
         rdf:about="">
        <dc:format>image/svg+xml</dc:format>
        <dc:type
           rdf:resource="http://purl.org/dc/dcmitype/StillImage" />
        <dc:title></dc:title>
      </cc:Work>
    </rdf:RDF>
  </metadata>
  <defs
     id="defs3712" />
  <path
     id="path3718"
     d="m 1.7462756,194.9199 c -2.0211401,-1.17721 -2.2905801,-3.97932 -0.55,-5.7199 0.66,-0.66 3.36,-1.2 6,-1.2 h 4.7999994 v -16.58889 -16.5889 l -3.0767294,2.5889 c -3.79819,3.19596 -7.53021,3.40268 -8.4614301,0.46866 -0.54383,-1.71345 0.7382801,-3.5424 6.6826101,-9.5329 C 18.549785,136.84921 18.390445,136.63211 18.996275,164.5 l 0.5,23 3.5,0.5 c 2.77667,0.39667 3.57129,1.00509 3.84497,2.94397 0.57152,4.04898 -2.0998,5.05944 -13.2861,5.02562 C 8.0227656,195.95289 2.7087756,195.48051 1.7462756,194.9199 Z M 44.567705,194.42857 C 41.023605,190.88447 43.549125,188 50.196275,188 h 4.8 v -16.68709 -16.68709 l -2.89208,2.77078 c -3.19857,3.06443 -6.70658,3.21547 -8.49295,0.36566 -0.91596,-1.46125 0.098,-2.933 6.37285,-9.25 4.10417,-4.13174 8.24505,-7.51226 9.20197,-7.51226 3.29221,0 3.81021,3.44915 3.81021,25.3709 v 21.50238 l 3.25,0.31336 c 2.57664,0.24844 3.32147,0.81972 3.59497,2.75733 0.57222,4.05393 -2.09646,5.05603 -13.46467,5.05603 -7.97343,0 -10.58497,-0.34752 -11.80887,-1.57143 z m 43.00385,-0.34538 c -1.38388,-1.52918 -1.50923,-2.3381 -0.6198,-4 0.8999,-1.68149 2.07226,-2.08319 6.0797,-2.08319 h 4.96482 v -16.68709 -16.68709 l -2.80472,2.68709 c -3.34094,3.20082 -6.70922,3.46382 -8.21952,0.6418 -0.96225,-1.79798 -0.22054,-2.94674 6.13381,-9.5 C 97.081485,144.35462 101.06822,141 101.96527,141 c 3.7387,0 4.031,1.79108 4.031,24.7 V 188 h 2.96482 c 1.90777,0 3.33389,0.68962 4,1.93426 1.33879,2.50156 1.32284,2.63522 -0.53625,4.49431 -1.23409,1.23409 -3.88418,1.57143 -12.34501,1.57143 -9.347735,0 -11.003165,-0.25368 -12.508275,-1.91681 z m 44.020875,0.61078 c -1.09791,-0.80281 -1.65318,-2.2477 -1.44113,-3.75 0.30923,-2.19075 0.88892,-2.47529 5.59497,-2.74623 l 5.25,-0.30226 v -16.63483 -16.63483 l -2.89208,2.77078 c -3.56858,3.41892 -7.44144,3.2808 -7.94539,-0.28336 -0.25949,-1.83521 1.23637,-3.97275 6.47318,-9.25 3.74586,-3.77478 7.52022,-6.86324 8.38747,-6.86324 3.67801,0 3.97682,1.85593 3.97682,24.7 V 188 h 2.8 c 4.76205,0 6.6725,3.38464 3.62857,6.42857 -2.06151,2.06151 -21.08635,2.27337 -23.83241,0.2654 z m 50.90384,0.21431 c -3.5864,-1.11383 -5.51104,-2.56568 -7.79589,-5.88079 -1.45141,-2.10586 -1.70356,-5.14576 -1.70037,-20.5 0.003,-16.31757 0.19516,-18.34146 2.02189,-21.33767 5.1407,-8.43174 17.54393,-7.86445 22.97977,1.05104 1.77058,2.90398 1.98736,5.05719 1.98931,19.75914 0.002,13.7376 -0.29054,17.07406 -1.74626,19.92892 -3.08874,6.05739 -9.52818,8.91121 -15.74845,6.97936 z m 7.27749,-8.46498 c 2.142,-1.50032 2.22251,-2.14676 2.22251,-17.84502 0,-14.76713 -0.17852,-16.44986 -1.91157,-18.01825 -2.69409,-2.43812 -7.22659,-1.7068 -8.80052,1.41997 -1.6487,3.27533 -1.75973,29.2351 -0.13821,32.31574 2.11848,4.02477 4.92949,4.71795 8.62779,2.12756 z M 1.0606656,123.57759 c -0.6763,-0.81489 -0.94433,-2.38049 -0.59564,-3.47912 0.5082,-1.60121 1.6654,-2.05713 5.83262,-2.29799 L 11.496275,117.5 l 0.27518,-16.97057 0.27518,-16.970572 -3.3227894,3.220571 c -3.52867,3.420126 -5.57795,3.970197 -7.52757,2.020571 -2.25914,-2.259139 -1.1933,-4.360285 5.66324,-11.164292 5.2772494,-5.236807 7.4147894,-6.732667 9.2499994,-6.47318 l 2.38676,0.337472 0.5,23 0.5,23 3.5,0.5 c 3.11111,0.44444 3.5,0.83333 3.5,3.5 v 3 l -12.10299,0.2796 C 4.6729456,125.00415 2.0482256,124.7675 1.0606656,123.57759 Z m 50.4356094,0.46838 c -2.73713,-1.13215 -6.14809,-4.9688 -7.43339,-8.36107 -0.58921,-1.55509 -1.05678,-9.61171 -1.04465,-18 0.0184,-12.750335 0.3265,-15.855662 1.92142,-19.368583 C 47.230935,73.269608 51.147235,71 57.564265,71 c 4.08828,0 5.14894,0.481641 8.54966,3.882353 l 3.88235,3.882353 v 18.982788 c 0,17.736136 -0.13715,19.157136 -2.0883,21.637626 -3.88293,4.93635 -10.91645,6.93384 -16.4117,4.66085 z m 9.94329,-9.26848 c 1.24324,-1.77497 1.55671,-5.28425 1.55671,-17.427416 V 82.14516 l -2.63486,-2.07258 c -3.2938,-2.590907 -4.83166,-2.606062 -7.36514,-0.07258 -1.83259,1.832586 -2,3.333333 -2,17.928571 0,13.147189 0.2744,16.202969 1.57143,17.499999 2.33247,2.33247 7.02322,1.98823 8.87186,-0.65108 z m 25.5225,8.15859 C 85.238915,119.71635 87.379685,118 93.118715,118 h 4.87756 V 100.80383 83.607666 l -3.29761,3.196167 C 92.884985,88.561725 90.650815,90 89.733855,90 c -1.47808,0 -3.73758,-2.739451 -3.73758,-4.531489 0,-0.364635 2.99883,-3.769219 6.66406,-7.565742 C 97.702455,72.680043 99.988583,71 102.05334,71 c 1.56596,0 2.98763,0.67411 3.33594,1.581787 0.33385,0.869984 0.60699,11.444984 0.60699,23.5 V 118 h 2.87756 c 3.80983,0 5.63708,2.16988 4.15665,4.93608 C 112.00926,124.84424 111.02561,125 99.996273,125 88.966935,125 87.983285,124.84424 86.962065,122.93608 Z m 43.418245,0.62233 c -1.40096,-3.65084 0.003,-5.05081 5.37533,-5.36067 l 5.24063,-0.30226 V 101.35885 84.822213 l -3.07673,2.588893 c -3.27311,2.754148 -3.85508,2.936029 -6.34148,1.981905 -3.42045,-1.312549 -1.74617,-5.561964 4.75154,-12.059678 6.49772,-6.497713 10.74713,-8.171994 12.05968,-4.751546 0.33385,0.869984 0.60699,11.444984 0.60699,23.5 V 118 h 3.43261 c 2.58117,0 3.59385,0.508 4.08262,2.04799 1.31603,4.14645 -0.90755,4.95201 -13.66906,4.95201 -9.44877,0 -12.02322,-0.29781 -12.46213,-1.44159 z m 48.91451,-0.51793 C 173.6352,119.58961 172.99627,117.04947 172.99627,98 c 0,-18.529833 0.53839,-20.91854 5.61488,-24.911704 5.8517,-4.602949 17.03005,-1.575686 19.9453,5.401482 2.1589,5.166983 2.03405,34.455712 -0.16664,39.093332 -3.24656,6.84161 -12.49142,9.48381 -19.09499,5.45737 z m 11.45145,-7.87135 c 0.88509,-1.09849 1.25,-6.2959 1.25,-17.803556 0,-15.66091 -0.0809,-16.308799 -2.22251,-17.80887 -3.04913,-2.135695 -4.46272,-1.962379 -7.32294,0.897841 -2.38208,2.382073 -2.45455,2.885954 -2.45455,17.065742 0,8.426153 0.45098,15.453863 1.06537,16.601863 2.02506,3.78386 7.04241,4.32628 9.68463,1.04698 z M 9.6388255,53.971794 C 8.0672256,53.500829 5.8676156,52.302008 4.7508056,51.307747 0.7364756,47.733917 -0.0039244,43.911683 1.5595021e-5,26.782119 0.0030156,12.299236 0.2233356,10.139853 1.9908756,7.2408601 7.4267156,-1.674628 19.829945,-2.24192 24.970635,6.1898245 c 1.82473,2.9929021 2.01852,5.0206495 2.0219,21.1558835 0.004,20.397137 -0.55244,22.292846 -7.54014,25.675534 -4.43238,2.145676 -5.48519,2.247652 -9.8135695,0.950552 z M 17.555145,45.5827 c 1.75221,-1.279364 1.9724,-2.940352 2.26249,-17.066614 0.26734,-13.018546 0.0533,-16.058384 -1.27305,-18.0827 C 16.660865,7.558474 12.547395,7.1912632 9.8250155,9.6549877 8.1983656,11.127082 7.9962756,13.079935 7.9962756,27.326247 c 0,13.499985 0.26001,16.303582 1.6549899,17.845012 1.9798095,2.187672 5.2388095,2.35732 7.9038795,0.411441 z m 27.01256,7.845871 C 41.023605,49.884473 43.549125,47 50.196275,47 h 4.8 V 30.312909 13.625818 l -2.80472,2.687091 c -3.46231,3.317106 -7.77177,3.596821 -8.73344,0.566863 -0.5438,-1.713358 0.73379,-3.536403 6.65758,-9.5000001 C 54.147485,3.320897 58.229145,0 59.186065,0 c 3.29221,0 3.81021,3.449155 3.81021,25.3709 v 21.502383 l 3.25,0.313359 c 2.51673,0.242658 3.32372,0.833424 3.57676,2.6184 C 70.453785,54.254424 68.605575,55 56.945255,55 c -8.49042,0 -11.14288,-0.336751 -12.37755,-1.571429 z m 43,0 c -1.85909,-1.859089 -1.87504,-1.992754 -0.53625,-4.494312 0.81006,-1.513614 2.11489,-1.934259 6,-1.934259 h 4.96482 V 30.312909 13.625818 l -2.80472,2.687091 c -1.5426,1.4779 -3.7026,2.687091 -4.8,2.687091 -2.07887,0 -4.39528,-1.74264 -4.39528,-3.30658 C 85.996275,14.05371 100.29677,0 101.96527,0 c 3.7387,0 4.031,1.791081 4.031,24.7 V 47 h 2.96482 c 1.90777,0 3.33389,0.689621 4,1.934259 1.33879,2.501558 1.32284,2.635223 -0.53625,4.494312 C 111.18925,54.66416 108.53307,55 99.996273,55 91.459475,55 88.803295,54.66416 87.567705,53.428571 Z m 49.744885,-0.33779 c -6.72026,-3.105969 -7.3169,-5.210307 -7.31258,-25.791121 0.003,-16.089046 0.19769,-18.1177802 2.02189,-21.1098355 3.69118,-6.0542475 12.13926,-7.8862165 18.07649,-3.9198915 6.03678,4.0328335 6.89477,7.1724845 6.89477,25.230067 0,13.258597 -0.29957,16.587502 -1.74844,19.428915 -3.5489,6.959819 -10.80837,9.454328 -17.93213,6.161866 z m 9.46117,-7.647485 c 2.14033,-1.499144 2.22251,-2.152552 2.22251,-17.671259 0,-17.7905308 -0.61116,-19.7720369 -6.09828,-19.7720369 -5.10995,0 -5.90172,2.6459729 -5.90172,19.7225059 0,13.944161 0.17455,15.452043 2,17.277494 2.40261,2.402613 4.78621,2.538472 7.77749,0.443296 z m 33.68993,7.594123 c -6.92966,-3.490592 -7.46794,-5.343507 -7.46368,-25.691711 0.004,-20.142022 0.68606,-22.547033 7.27933,-25.675743 4.64416,-2.203798 8.49339,-2.103639 12.47607,0.324633 6.51642,3.9731121 7.23338,6.5011617 7.23338,25.505402 0,15.090258 -0.21889,17.358994 -1.94852,20.195666 -3.95799,6.491294 -11.02853,8.640124 -17.57658,5.341753 z m 9.70384,-7.692407 c 1.62665,-1.472094 1.82874,-3.424947 1.82874,-17.671259 0,-13.499985 -0.26001,-16.303582 -1.65499,-17.8450118 -1.98052,-2.1884506 -5.23996,-2.357261 -7.90388,-0.4093525 -1.78704,1.3067163 -1.94113,2.7419673 -1.94113,18.0806113 0,15.338644 0.15409,16.773895 1.94113,18.080611 2.57545,1.883219 5.48691,1.794484 7.73013,-0.235599 z"
     style="fill:#000000" />
</svg>
