
<svg
   viewBox="0 0 199.85895 199.50163"
   height="199.50163"
   width="199.85895"
   id="svg21"
   version="1.1">
  <defs
     id="defs25" />
  <path
     id="path31"
     d="M 86.55837,184.53625 C 78.34114,176.3053 71.8214,169.41132 72.07006,169.21631 86.66095,157.7734 103.2909,145.43539 103.64551,145.79 c 0.25971,0.25971 2.24202,10.0882 4.40512,21.84109 l 3.93293,21.3689 -5.24238,5.25082 -5.24238,5.25082 z m -69.64815,1.52859 c -5.49284,-3.12093 -6.66334,-13.36649 -2.6595,-23.27902 2.39736,-5.93524 7.48219,-14.06187 12.68201,-20.26851 2.85755,-3.41085 2.95956,-3.44483 4.94572,-1.64738 2.02343,1.83117 2.01929,1.84631 -1.84152,6.7306 -7.42056,9.38772 -9.88746,21.06769 -5.47859,25.93943 2.38666,2.63723 7.87144,4.24388 11.71729,3.43235 4.38895,-0.92614 12.22871,-4.89413 16.75955,-8.48262 3.551,-2.81245 3.79065,-2.86413 5.34041,-1.15167 1.51386,1.6728 1.40564,1.99596 -1.61543,4.82366 -9.75153,9.12738 -20.6079,14.52095 -30.23799,15.02258 -4.91744,0.25615 -7.77708,-0.0769 -9.61195,-1.11942 z m 33.4278,-37.81485 -15.15994,-15.25 40.67204,-52.568575 c 22.36963,-28.912722 41.61435,-53.746667 42.76606,-55.186546 7.25957,-9.076035 24.1422,-18.994865 38.90599,-22.857928 6.02768,-1.577189 11.38292,-2.129465 21.72157,-2.240102 L 192.96531,0 l 3.20484,3.195643 c 2.99702,2.988419 3.2314,3.734148 3.6143,11.5 0.54396,11.032267 -1.94085,26.738826 -5.82251,36.804309 -3.81916,9.90341 -11.33946,21.380346 -17.81028,27.18074 -6.32994,5.674105 -108.84756,84.819298 -109.86736,84.819298 -0.43248,0 -7.60831,-6.8625 -15.94628,-15.25 z M 160.14144,64.439152 c 10.50792,-5.36074 12.52172,-19.990737 3.9837,-28.940986 -5.60618,-5.876845 -13.36551,-7.424816 -20.64434,-4.118502 -16.02093,7.277297 -14.3485,29.969026 2.57791,34.977315 4.24806,1.256944 9.17482,0.586005 14.08273,-1.917827 z M 14.73698,112.71517 0,97.953575 5.33943,92.680468 10.67886,87.40736 30.60052,90.987434 c 10.95691,1.969041 20.7243,3.904471 21.70532,4.300956 1.51645,0.612882 0.11939,2.892515 -9.32519,15.21625 -6.10988,7.97245 -11.64837,15.05263 -12.30777,15.73374 -0.94355,0.97462 -4.33785,-1.90579 -15.9359,-13.52321 z"
     style="fill:#fff" />
</svg>
